<?xml version="1.0" encoding="UTF-8" standalone="no"?>
<!-- Created with Inkscape (http://www.inkscape.org/) -->

<svg
   xmlns:dc="http://purl.org/dc/elements/1.1/"
   xmlns:cc="http://creativecommons.org/ns#"
   xmlns:rdf="http://www.w3.org/1999/02/22-rdf-syntax-ns#"
   xmlns:svg="http://www.w3.org/2000/svg"
   xmlns="http://www.w3.org/2000/svg"
   xmlns:sodipodi="http://sodipodi.sourceforge.net/DTD/sodipodi-0.dtd"
   xmlns:inkscape="http://www.inkscape.org/namespaces/inkscape"
   inkscape:output_extension="org.inkscape.output.svg.inkscape"
   sodipodi:docname="BurjDubaiHeight.svg"
   version="1.0"
   height="613.9707"
   width="1232.6512"
   inkscape:version="0.47 r22583"
   sodipodi:version="0.32"
   id="svg2"
   style="display:inline">
  <title
     id="title2908">Burj Khalifa Height</title>
  <metadata
     id="metadata7">
    <rdf:RDF>
      <cc:Work
         rdf:about="">
        <dc:format>image/svg+xml</dc:format>
        <dc:type
           rdf:resource="http://purl.org/dc/dcmitype/StillImage" />
        <dc:title>Burj Khalifa Height</dc:title>
        <dc:creator>
          <cc:Agent>
            <dc:title>Astronaut, Hc5duke. MrWeeble, Rama</dc:title>
          </cc:Agent>
        </dc:creator>
        <dc:subject>
          <rdf:Bag>
            <rdf:li>Burj Khalifa</rdf:li>
          </rdf:Bag>
        </dc:subject>
        <dc:description>Height comparison of Burj Khalifa and other tall buildings and structures.</dc:description>
        <cc:license
           rdf:resource="http://creativecommons.org/licenses/by-sa/3.0/" />
        <dc:contributor>
          <cc:Agent>
            <dc:title>Astronaut updated work by, Hc5duke. MrWeeble, &amp; Rama</dc:title>
          </cc:Agent>
        </dc:contributor>
      </cc:Work>
      <cc:License
         rdf:about="http://creativecommons.org/licenses/by-sa/3.0/">
        <cc:permits
           rdf:resource="http://creativecommons.org/ns#Reproduction" />
        <cc:permits
           rdf:resource="http://creativecommons.org/ns#Distribution" />
        <cc:requires
           rdf:resource="http://creativecommons.org/ns#Notice" />
        <cc:requires
           rdf:resource="http://creativecommons.org/ns#Attribution" />
        <cc:permits
           rdf:resource="http://creativecommons.org/ns#DerivativeWorks" />
        <cc:requires
           rdf:resource="http://creativecommons.org/ns#ShareAlike" />
      </cc:License>
    </rdf:RDF>
  </metadata>
  <defs
     id="defs5">
    <inkscape:perspective
       sodipodi:type="inkscape:persp3d"
       inkscape:vp_x="0 : 306.98535 : 1"
       inkscape:vp_y="0 : 1000 : 0"
       inkscape:vp_z="1232.6512 : 306.98535 : 1"
       inkscape:persp3d-origin="616.32562 : 204.6569 : 1"
       id="perspective100" />
  </defs>
  <sodipodi:namedview
     inkscape:window-height="1004"
     inkscape:window-width="1280"
     inkscape:pageshadow="2"
     inkscape:pageopacity="0.0"
     guidetolerance="10.0"
     gridtolerance="10.0"
     objecttolerance="10.0"
     borderopacity="1.0"
     bordercolor="#666666"
     pagecolor="#ffffff"
     id="base"
     showgrid="false"
     inkscape:zoom="0.99109545"
     inkscape:cx="607.39619"
     inkscape:cy="315.78272"
     inkscape:window-x="-8"
     inkscape:window-y="-8"
     inkscape:current-layer="layer2"
     showguides="true"
     inkscape:guide-bbox="true"
     inkscape:window-maximized="1">
    <inkscape:grid
       type="xygrid"
       id="grid3526"
       visible="true"
       enabled="true"
       empspacing="5"
       snapvisiblegridlinesonly="true" />
  </sodipodi:namedview>
  <g
     inkscape:groupmode="layer"
     id="layer1"
     inkscape:label="doc"
     transform="translate(472.93,51.4273)"
     style="display:inline">
    <rect
       style="fill:#ffffff;fill-opacity:1;fill-rule:evenodd;stroke:#808080;stroke-width:1;stroke-linecap:round;stroke-linejoin:miter;stroke-miterlimit:4;stroke-opacity:1;stroke-dasharray:none;stroke-dashoffset:0;marker:none;visibility:visible;display:inline;overflow:visible"
       id="rect3592"
       width="1231.6512"
       height="612.9707"
       x="-472.43048"
       y="-50.927254" />
  </g>
  <g
     inkscape:groupmode="layer"
     id="layer3"
     inkscape:label="Grid"
     style="display:inline">
    <g
       id="g3265"
       transform="translate(74,-144)">
      <text
         sodipodi:linespacing="100%"
         id="text3490"
         y="567.49512"
         x="-496.59985"
         style="font-size:14px;font-style:normal;font-variant:normal;font-weight:normal;font-stretch:normal;text-align:center;line-height:100%;text-anchor:middle;fill:#000000;fill-opacity:1;stroke:none;display:inline;font-family:DejaVu Sans"
         xml:space="preserve"
         transform="translate(472.93,51.4273)"><tspan
           y="567.49512"
           x="-496.59985"
           id="tspan3492"
           sodipodi:role="line">0 m</tspan></text>
      <text
         sodipodi:linespacing="100%"
         id="text3498"
         y="517.51685"
         x="-504.39282"
         style="font-size:14px;font-style:normal;font-variant:normal;font-weight:normal;font-stretch:normal;text-align:center;line-height:100%;text-anchor:middle;fill:#000000;fill-opacity:1;stroke:none;display:inline;font-family:DejaVu Sans"
         xml:space="preserve"
         transform="translate(472.93,51.4273)"><tspan
           y="517.51685"
           x="-504.39282"
           id="tspan3500"
           sodipodi:role="line">100 m</tspan></text>
      <text
         sodipodi:linespacing="100%"
         id="text3502"
         y="467.46091"
         x="-504.39282"
         style="font-size:14px;font-style:normal;font-variant:normal;font-weight:normal;font-stretch:normal;text-align:center;line-height:100%;text-anchor:middle;fill:#000000;fill-opacity:1;stroke:none;display:inline;font-family:DejaVu Sans"
         xml:space="preserve"
         transform="translate(472.93,51.4273)"><tspan
           y="467.46091"
           x="-504.39282"
           id="tspan3504"
           sodipodi:role="line">200 m</tspan></text>
      <text
         sodipodi:linespacing="100%"
         id="text3506"
         y="417.45517"
         x="-504.39282"
         style="font-size:14px;font-style:normal;font-variant:normal;font-weight:normal;font-stretch:normal;text-align:center;line-height:100%;text-anchor:middle;fill:#000000;fill-opacity:1;stroke:none;display:inline;font-family:DejaVu Sans"
         xml:space="preserve"
         transform="translate(472.93,51.4273)"><tspan
           y="417.45517"
           x="-504.39282"
           id="tspan3508"
           sodipodi:role="line">300 m</tspan></text>
      <text
         sodipodi:linespacing="100%"
         id="text3510"
         y="367.49789"
         x="-504.39282"
         style="font-size:14px;font-style:normal;font-variant:normal;font-weight:normal;font-stretch:normal;text-align:center;line-height:100%;text-anchor:middle;fill:#000000;fill-opacity:1;stroke:none;display:inline;font-family:DejaVu Sans"
         xml:space="preserve"
         transform="translate(472.93,51.4273)"><tspan
           y="367.49789"
           x="-504.39282"
           id="tspan3512"
           sodipodi:role="line">400 m</tspan></text>
      <text
         sodipodi:linespacing="100%"
         id="text3514"
         y="317.45395"
         x="-504.39282"
         style="font-size:14px;font-style:normal;font-variant:normal;font-weight:normal;font-stretch:normal;text-align:center;line-height:100%;text-anchor:middle;fill:#000000;fill-opacity:1;stroke:none;display:inline;font-family:DejaVu Sans"
         xml:space="preserve"
         transform="translate(472.93,51.4273)"><tspan
           y="317.45395"
           x="-504.39282"
           id="tspan3516"
           sodipodi:role="line">500 m</tspan></text>
      <text
         sodipodi:linespacing="100%"
         id="text3518"
         y="267.44788"
         x="-504.39282"
         style="font-size:14px;font-style:normal;font-variant:normal;font-weight:normal;font-stretch:normal;text-align:center;line-height:100%;text-anchor:middle;fill:#000000;fill-opacity:1;stroke:none;display:inline;font-family:DejaVu Sans"
         xml:space="preserve"
         transform="translate(472.93,51.4273)"><tspan
           y="267.44788"
           x="-504.39282"
           id="tspan3520"
           sodipodi:role="line">600 m</tspan></text>
      <text
         sodipodi:linespacing="100%"
         id="text3522"
         y="217.44452"
         x="-504.39282"
         style="font-size:14px;font-style:normal;font-variant:normal;font-weight:normal;font-stretch:normal;text-align:center;line-height:100%;text-anchor:middle;fill:#000000;fill-opacity:1;stroke:none;display:inline;font-family:DejaVu Sans"
         xml:space="preserve"
         transform="translate(472.93,51.4273)"><tspan
           y="217.44452"
           x="-504.39282"
           id="tspan3524"
           sodipodi:role="line">700 m</tspan></text>
      <text
         sodipodi:linespacing="100%"
         id="text3494"
         y="167.46227"
         x="-504.39282"
         style="font-size:14px;font-style:normal;font-variant:normal;font-weight:normal;font-stretch:normal;text-align:center;line-height:100%;text-anchor:middle;fill:#000000;fill-opacity:1;stroke:none;display:inline;font-family:DejaVu Sans"
         xml:space="preserve"
         transform="translate(472.93,51.4273)"><tspan
           y="167.46227"
           x="-504.39282"
           id="tspan3496"
           sodipodi:role="line">800 m</tspan></text>
    </g>
    <g
       id="g3254"
       transform="translate(74,-144)">
      <path
         id="path3464"
         d="m 666.41793,562.54932 -1137.89026,0"
         style="fill:none;stroke:#808080;stroke-width:1.00000012px;stroke-linecap:butt;stroke-linejoin:miter;stroke-opacity:1;display:inline"
         transform="translate(472.93,51.4273)" />
      <path
         style="fill:none;stroke:#808080;stroke-width:1.00000012px;stroke-linecap:butt;stroke-linejoin:miter;stroke-opacity:1;display:inline"
         d="m 666.41793,512.57104 -1137.89026,0"
         id="path3466"
         transform="translate(472.93,51.4273)" />
      <path
         id="path3468"
         d="m 666.41793,462.51512 -1137.89026,0"
         style="fill:none;stroke:#808080;stroke-width:1.00000012px;stroke-linecap:butt;stroke-linejoin:miter;stroke-opacity:1;display:inline"
         transform="translate(472.93,51.4273)" />
      <path
         style="fill:none;stroke:#808080;stroke-width:1.00000012px;stroke-linecap:butt;stroke-linejoin:miter;stroke-opacity:1;display:inline"
         d="m 666.41793,412.51278 -1137.89026,0"
         id="path3472"
         transform="translate(472.93,51.4273)" />
      <path
         id="path2475"
         d="m 1139.3479,413.97938 -1137.89023,0"
         style="fill:none;stroke:#808080;stroke-width:1.00000012px;stroke-linecap:butt;stroke-linejoin:miter;stroke-opacity:1;display:inline" />
      <path
         style="fill:none;stroke:#808080;stroke-width:1.00000012px;stroke-linecap:butt;stroke-linejoin:miter;stroke-opacity:1;display:inline"
         d="m 666.41793,312.50815 -1137.89026,0"
         id="path3476"
         transform="translate(472.93,51.4273)" />
      <path
         id="path3480"
         d="m 666.41793,262.50207 -1137.89026,0"
         style="fill:none;stroke:#808080;stroke-width:1.00000012px;stroke-linecap:butt;stroke-linejoin:miter;stroke-opacity:1;display:inline"
         transform="translate(472.93,51.4273)" />
      <path
         style="fill:none;stroke:#808080;stroke-width:1.00000012px;stroke-linecap:butt;stroke-linejoin:miter;stroke-opacity:1;display:inline"
         d="m 666.41793,212.49872 -1137.89026,0"
         id="path3482"
         transform="translate(472.93,51.4273)" />
      <path
         id="path3484"
         d="m 666.41793,162.51647 -1137.89026,0"
         style="fill:none;stroke:#808080;stroke-width:1.00000012px;stroke-linecap:butt;stroke-linejoin:miter;stroke-opacity:1;display:inline"
         transform="translate(472.93,51.4273)" />
    </g>
  </g>
  <g
     inkscape:groupmode="layer"
     id="layer2"
     inkscape:label="work"
     transform="translate(472.93,51.4273)"
     style="display:inline">
    <g
       id="g3739">
      <g
         transform="translate(74,-144)"
         id="g3669">
        <path
           style="fill:#000000;fill-opacity:1;fill-rule:evenodd;stroke:#000000;stroke-width:0.99999988;stroke-linecap:round;stroke-linejoin:miter;stroke-miterlimit:4;stroke-opacity:1;stroke-dasharray:none;stroke-dashoffset:0;marker:none;visibility:visible;display:inline;overflow:visible"
           d="m -398.70346,490.04888 -72.02477,72 144.01783,0 -71.99306,-72 z"
           id="rect3459" />
        <text
           xml:space="preserve"
           style="font-size:14px;font-style:normal;font-variant:normal;font-weight:normal;font-stretch:normal;text-align:center;line-height:100%;text-anchor:middle;fill:#000000;fill-opacity:1;stroke:none;font-family:DejaVu Sans"
           x="-398.58261"
           y="580.11304"
           id="text3528"
           sodipodi:linespacing="100%"><tspan
             sodipodi:role="line"
             id="tspan3530"
             x="-398.58261"
             y="580.11304">Great Pyramid</tspan><tspan
             sodipodi:role="line"
             x="-398.58261"
             y="594.11304"
             id="tspan3532">(Giza)</tspan></text>
      </g>
      <g
         transform="translate(74,-144)"
         id="g3675">
        <path
           style="fill:#000000;fill-opacity:1;fill-rule:evenodd;stroke:#000000;stroke-width:0.99999994;stroke-linecap:round;stroke-linejoin:miter;stroke-miterlimit:4;stroke-opacity:1;stroke-dasharray:none;stroke-dashoffset:0;marker:none;visibility:visible;display:inline;overflow:visible"
           d="m -267.30801,401.04889 -0.27685,11.00643 -1.35339,0 -0.0783,3.21604 -0.58653,0 0,1.16167 4.97271,0 0,-1.16167 -1.19854,0 0,-3.21604 -1.40439,0 -0.0747,-11.00643 -1e-5,0 z m -1.93807,15.6667 0,1.31865 -1.42808,0 0,1.60119 6.75781,0 0,-1.60119 -1.19856,0 0,-1.31865 -4.13117,0 z m -1.07105,3.13963 c 0.57354,0.64426 1.07866,1.33137 1.09654,2.38611 l -0.153,0 c -0.13641,23.27164 -2.17223,42.75433 -4.97272,63.07498 l 13.9236,-0.12558 c -2.57854,-20.37231 -4.65809,-39.6897 -4.79419,-62.9494 l -0.0508,0 c 0.13982,-0.90525 0.24258,-1.81062 0.91803,-2.38611 l -5.96724,0 -2.2e-4,0 z m -4.02918,65.46109 -0.58651,0 0,2.4803 15.98918,0 0,-2.4803 -15.40267,0 z m -3.18765,2.63729 0,2.04077 2.55011,0 c -0.36639,1.88702 -0.75709,3.77715 -1.14753,5.68272 l -0.91805,0 0,2.76283 0.33151,0 c -1.37912,6.36494 -3.09958,13.00322 -5.99276,20.53314 l -4.7687,0 0,0.28258 4.46269,0 c -0.5937,1.65226 -1.23269,3.30474 -1.91259,4.9606 l -2.29509,0 0,3.20241 0.91804,0 c -4.81545,10.94502 -11.27565,22.16746 -18.2333,34.63003 l 11.24599,-0.18837 c 3.04285,-6.19591 6.22462,-12.34152 9.2569,-18.71215 l 0.0254,-0.0312 c 12.00327,-10.54319 23.00348,-8.56298 33.50845,-0.65932 3.12905,6.61347 6.38628,12.9865 9.53742,19.40287 l 11.27148,0.18837 c -6.95765,-12.46257 -13.41784,-23.68501 -18.23328,-34.63003 l 0.56102,0 0,-3.20241 -1.93809,0 c -0.67989,-1.65586 -1.31887,-3.30834 -1.91258,-4.9606 l 4.10568,0 0,-0.28258 -4.28418,0 c -2.89319,-7.52992 -4.63913,-14.1682 -6.01827,-20.53314 l 0,-2.76282 -0.58652,0 c -0.39037,-1.90513 -0.75575,-3.79614 -1.12206,-5.68273 l 1.83609,0 0,-2.04077 -20.24789,0 1.1e-4,-2e-4 z m 8.33887,2.04077 4.28419,0 c 0.24503,1.94493 0.49338,3.83619 0.76504,5.68272 l -5.81426,0 c 0.27166,-1.84653 0.52001,-3.73779 0.76503,-5.68272 z m -1.17304,8.44555 6.63029,0 c 1.17115,7.43296 2.52558,14.13966 3.97817,20.53314 l -14.61213,0 c 1.45266,-6.39386 2.83245,-13.09965 4.00367,-20.53314 z m -4.00367,20.81572 14.51012,0 c 0.5333,1.67954 1.07622,3.33333 1.65757,4.9606 l -17.85078,0 c 0.58167,-1.62811 1.1495,-3.28016 1.68309,-4.9606 z"
           id="rect3327"
           sodipodi:nodetypes="ccccccccccccccccccccccccccccccccccccccccccccccccccccccccccccccccccccccccccccccccccccccccccc" />
        <text
           xml:space="preserve"
           style="font-size:14px;font-style:normal;font-variant:normal;font-weight:normal;font-stretch:normal;text-align:center;line-height:100%;text-anchor:middle;fill:#000000;fill-opacity:1;stroke:none;font-family:DejaVu Sans"
           x="-267.7594"
           y="616.02191"
           id="text3542"
           sodipodi:linespacing="100%"><tspan
             sodipodi:role="line"
             id="tspan3544"
             x="-267.7594"
             y="616.02191">Eiffel Tower</tspan><tspan
             sodipodi:role="line"
             x="-267.7594"
             y="630.02191"
             id="tspan3546">(Paris)</tspan></text>
      </g>
      <g
         transform="translate(74,-144)"
         id="g3681">
        <path
           style="fill:#000000;fill-opacity:1;fill-rule:evenodd;stroke:#000000;stroke-width:0.99999988;stroke-linecap:round;stroke-linejoin:miter;stroke-miterlimit:4;stroke-opacity:1;stroke-dasharray:none;stroke-dashoffset:0;marker:none;visibility:visible;display:inline;overflow:visible"
           d="m -174.01458,341.44888 0,31.11913 -1.94405,0 -1.37582,21.37435 c -1.42942,1.09999 -2.1056,4.08207 -2.73501,7.18121 -6.25925,4.9471 -6.28001,10.67341 -6.26782,15.73576 l -3.03113,0 0,16.62983 -1.74641,0 0,73.26976 -1.71327,0 0,10.1426 -3.03134,0 0,7.3435 -3.45973,0 0,28.08942 -8.20407,0 0,9.71444 67.01753,0 0,-9.71444 -8.86315,0 0,-28.08942 -3.26186,0 0,-7.3435 -3.03133,0 0,-10.1426 -2.14167,0 0,-73.26976 -0.85699,0 0,-16.62983 -3.03087,0 c 0.17903,-5.30413 -1.30798,-12.34911 -6.87939,-15.27766 -0.87751,-2.87843 0.10227,-6.47367 -2.61254,-8.25051 l -0.45862,-20.76315 -2.17478,0 0,-31.11913 -0.19768,0 z"
           id="rect3167"
           sodipodi:nodetypes="ccccccccccccccccccccccccccccccccccccc" />
        <text
           xml:space="preserve"
           style="font-size:14px;font-style:normal;font-variant:normal;font-weight:normal;font-stretch:normal;text-align:center;line-height:100%;text-anchor:middle;fill:#000000;fill-opacity:1;stroke:none;font-family:DejaVu Sans"
           x="-174.0965"
           y="580.11304"
           id="text3548"
           sodipodi:linespacing="100%"><tspan
             sodipodi:role="line"
             x="-174.0965"
             y="580.11304"
             id="tspan3552">Empire State Building</tspan><tspan
             sodipodi:role="line"
             x="-174.0965"
             y="594.11304"
             id="tspan3554">(New York)</tspan></text>
      </g>
      <g
         transform="translate(74,-144)"
         id="g3687">
        <path
           style="fill:#000000;fill-opacity:1;fill-rule:evenodd;stroke:#000000;stroke-width:0.99999952;stroke-linecap:round;stroke-linejoin:miter;stroke-miterlimit:4;stroke-opacity:1;stroke-dasharray:none;stroke-dashoffset:0;marker:none;visibility:visible;display:inline;overflow:visible"
           d="m -77.259502,337.04887 0,24.12015 -1.95557,0 0,7.02402 c -4.05758,0.58023 -4.77446,3.00417 -5.20382,5.5993 l 0,10.20469 -3.04936,0 0,13.05409 -1.95558,0 0,18.02385 -0.86177,0 0,26.10809 -1.7567,0 0,109.99849 -1.29267,0 0,10.86733 90.0226837,0 0,-10.86733 -2.154445,0 0,-109.99849 -1.524685,0 0,-26.10809 -1.093796,0 0,-18.02385 -1.325813,0 0,-13.05409 -3.2482377,0 0,-10.20469 c 0.170743,-2.97454 -1.605899,-5.12055 -4.408328,-5.53302 l -0.165729,-7.0903 -2.585329,0 0,-24.12015 -0.464035,0 0,24.12015 -1.955576,0 0,7.02402 c -4.057572,0.58023 -4.774463,3.00417 -5.203817,5.5993 l 0,10.20469 -3.049363,0 0,13.05409 -1.955581,0 0,18.02385 -0.861775,0 0,26.10809 -1.756707,0 0,33.89403 -27.378037,0 0,-33.89403 -1.52468,0 0,-26.10809 -1.09379,0 0,-18.02385 -1.32582,0 0,-13.05409 -3.24824,0 0,-10.20469 c 0.17073,-2.97454 -1.6059,-5.12055 -4.40833,-5.53302 l -0.16572,-7.0903 -2.58534,0 0,-24.12015 -0.46404,0 z m 14.81597,145.41676 12.959815,0 -12.959815,22.89422 0,-22.89422 z m 13.954174,0 0.331454,0 13.092399,23.1593 0,39.89101 -27.378027,0 0,-38.36693 13.954174,-24.68338 z m 1.325813,0 12.09804,0 0,21.37013 -12.09804,-21.37013 z"
           id="rect3186" />
        <text
           xml:space="preserve"
           style="font-size:14px;font-style:normal;font-variant:normal;font-weight:normal;font-stretch:normal;text-align:center;line-height:100%;text-anchor:middle;fill:#000000;fill-opacity:1;stroke:none;font-family:DejaVu Sans"
           x="-48.593651"
           y="615.85101"
           id="text3556"
           sodipodi:linespacing="100%"><tspan
             sodipodi:role="line"
             x="-48.593651"
             y="615.85101"
             id="tspan3560">Petronas Towers</tspan><tspan
             sodipodi:role="line"
             x="-48.593651"
             y="629.85101"
             id="tspan3562">(Kuala Lumpur)</tspan></text>
      </g>
      <g
         transform="translate(74,-144)"
         id="g3693">
        <path
           style="fill:#000000;fill-opacity:1;fill-rule:evenodd;stroke:#000000;stroke-width:1px;stroke-linecap:butt;stroke-linejoin:miter;stroke-opacity:1"
           d="m 64.805986,308.44886 0,20.24637 -0.84059,0 -1.71478,0 -0.16812,8.6962 -4.20292,0 -0.16811,1.57807 1.41218,0.30219 0.16811,4.197 c -0.25639,2.69304 0.56259,3.20919 1.07595,4.36489 l -0.13449,5.77508 -3.5977,9.80421 4.20292,0.33576 -9.5154,0 0,2.2496 -0.840583,-0.0335 0,0.10067 -3.96755,0.13431 0.437103,1.30946 1.075946,0 1.546672,10.13997 0.941453,0.13431 0.03357,6.11084 -4.034797,0.13431 0.437103,1.30946 1.075946,0 1.546672,10.13997 1.0087,0.13431 0,4.36489 -4.068421,0.1343 0.437103,1.30947 1.075946,0 1.546672,10.13997 1.075946,0.1343 0,5.23787 -4.135667,0.1343 0.437103,1.34304 1.075946,0 1.546672,10.13998 1.109569,0.1343 0.03357,4.09628 -4.202914,0.16788 0.437103,1.30947 1.075946,0 1.546672,10.13997 1.176816,0.16788 0,4.96925 -4.236537,0.13431 0.437103,1.34304 1.075946,0 1.546672,10.13997 1.21044,0.16788 0.03357,4.49919 -4.303783,0.16789 0.437103,1.30946 1.075945,0 1.546673,10.13997 1.277685,0.16788 0.03357,5.84224 -4.37103,0.16788 0.437103,1.30946 1.075946,0 1.546672,10.13998 1.344932,0.16788 0,2.48462 -7.060895,64.33174 15.433098,0 12.81048,0 15.4331,0 -7.06089,-64.33174 0,-2.48462 1.34493,-0.16788 1.54667,-10.13998 1.07595,0 0.4371,-1.30946 -4.37103,-0.16788 0.0336,-5.84224 1.27768,-0.16788 1.54668,-10.13997 1.07594,0 0.43711,-1.30946 -4.30379,-0.16789 0.0336,-4.49919 1.21044,-0.16788 1.54667,-10.13997 1.07595,0 0.4371,-1.34304 -4.23654,-0.13431 0,-4.96925 1.17682,-0.16788 1.54667,-10.13997 1.07595,0 0.4371,-1.30947 -4.20291,-0.16788 0.0336,-4.09628 1.10957,-0.1343 1.54667,-10.13998 1.07594,0 0.43711,-1.34304 -4.13567,-0.1343 0,-5.23787 1.07595,-0.1343 1.54667,-10.13997 1.07594,0 0.43711,-1.30947 -4.06842,-0.1343 0,-4.36489 1.0087,-0.13431 1.54667,-10.13997 1.07594,0 0.43711,-1.30946 -4.0348,-0.13431 0.0336,-6.11084 0.94145,-0.13431 1.54668,-10.13997 1.07594,0 0.43711,-1.30946 -3.96756,-0.13431 0,-0.10067 -0.84058,0.0335 0,-2.2496 -9.5154,0 4.20292,-0.33576 -3.5977,-9.80421 -0.13449,-5.77508 c 0.51336,-1.1557 1.33234,-1.67185 1.07595,-4.36489 l 0.16811,-4.197 1.41218,-0.30219 -0.16811,-1.57807 -4.20292,0 -0.16811,-8.6962 -1.71479,0 -1.07595,0 0,-20.24637 -1.54667,0 z"
           id="path3366" />
        <text
           xml:space="preserve"
           style="font-size:14px;font-style:normal;font-variant:normal;font-weight:normal;font-stretch:normal;text-align:center;line-height:100%;text-anchor:middle;fill:#000000;fill-opacity:1;stroke:none;font-family:DejaVu Sans"
           x="66.821297"
           y="579.98315"
           id="text3564"
           sodipodi:linespacing="100%"><tspan
             sodipodi:role="line"
             id="tspan3566"
             x="66.821297"
             y="579.98315">Taipei 101</tspan><tspan
             sodipodi:role="line"
             x="66.821297"
             y="593.98315"
             id="tspan3568">(Taipei)</tspan></text>
      </g>
      <g
         transform="translate(74,-144)"
         id="g3699">
        <g
           id="g2455"
           transform="matrix(1.0683081,0,0,1.0683081,120.34431,122.83452)">
          <g
             id="g2451">
            <path
               style="fill:none;stroke:#000000;stroke-width:0.93605953px;stroke-linecap:butt;stroke-linejoin:miter;stroke-opacity:1"
               d="m 30.66732,211.91084 0,-46.10411 0,46.10411 z"
               id="path2448" />
            <rect
               style="fill:#e6e6e6;fill-opacity:1;fill-rule:evenodd;stroke:#000000;stroke-width:0.93605953;stroke-linecap:round;stroke-linejoin:miter;stroke-miterlimit:4;stroke-opacity:1;stroke-dasharray:none;stroke-dashoffset:0;marker:none;visibility:visible;display:inline;overflow:visible"
               id="rect2444"
               width="27.066332"
               height="200.94702"
               x="13.443298"
               y="210.18378" />
          </g>
          <rect
             style="fill:#e6e6e6;fill-opacity:1;fill-rule:evenodd;stroke:#000000;stroke-width:0.93605953;stroke-linecap:round;stroke-linejoin:miter;stroke-miterlimit:4;stroke-opacity:1;stroke-dasharray:none;stroke-dashoffset:0;marker:none;visibility:visible;display:inline;overflow:visible"
             id="rect2446"
             width="27.066332"
             height="199.30663"
             x="55.273083"
             y="211.82416" />
        </g>
        <text
           sodipodi:linespacing="100%"
           id="text2461"
           y="616.02191"
           x="171.33272"
           style="font-size:14px;font-style:normal;font-variant:normal;font-weight:normal;font-stretch:normal;text-align:center;line-height:100%;text-anchor:middle;fill:#000000;fill-opacity:1;stroke:none;font-family:DejaVu Sans"
           xml:space="preserve"><tspan
             id="tspan2463"
             y="616.02191"
             x="171.33272"
             sodipodi:role="line">World Trade Center</tspan><tspan
             id="tspan2465"
             y="630.02191"
             x="171.33272"
             sodipodi:role="line">(New York)</tspan></text>
      </g>
      <g
         transform="translate(74,-144)"
         id="g3709">
        <path
           id="path3650"
           style="fill:#000000;fill-opacity:1;stroke:none"
           d="m 302.02935,562.54888 -47.05045,0 0,-100.99966 5.44673,0 0,-77.97193 5.07023,0 0,-40.02987 3.46863,0 0,-17.9957 0.9626,0 0,16.00883 2.56315,0 0,-30.99643 0.48977,0 0,-11.51524 1.01559,0 0,11.49962 0.48439,0 0,30.99895 3.48422,0 0,-30.9881 0.53624,0 0,-7.5017 0.98884,0 0,7.51276 0.49161,0 0,30.99563 1.99417,0 0,-16.00328 1.01095,0 0,17.99199 3.49946,-0.008 0,40.02987 10.45068,0 0,77.97193 5.09319,0 0,100.99962 z"
           sodipodi:nodetypes="ccccccccccccccccccccccccccccccccccccc" />
        <text
           sodipodi:linespacing="100%"
           id="text2461-9"
           y="579.94214"
           x="278.3298"
           style="font-size:14px;font-style:normal;font-variant:normal;font-weight:normal;font-stretch:normal;text-align:center;line-height:100%;text-anchor:middle;fill:#000000;fill-opacity:1;stroke:none;display:inline;font-family:DejaVu Sans"
           xml:space="preserve"><tspan
             id="tspan2463-4"
             y="579.94214"
             x="278.3298"
             sodipodi:role="line">Willis Tower</tspan><tspan
             id="tspan2465-8"
             y="593.94214"
             x="278.3298"
             sodipodi:role="line">(Chicago)</tspan></text>
      </g>
      <g
         transform="translate(74,-144)"
         id="g3715">
        <path
           style="fill:#000000;fill-opacity:1;fill-rule:evenodd;stroke:#000000;stroke-width:1px;stroke-linecap:butt;stroke-linejoin:miter;stroke-opacity:1"
           d="m 365.03766,286.38388 -0.19965,27.6728 -1.09804,0.43187 -0.23292,22.0253 c -2.00848,1.5985 -4.99644,3.18527 -0.86513,4.78377 l 0,31.39352 -0.66548,0.23255 0,5.88005 -4.3589,0.23255 0,3.92003 c -10.43117,7.17096 -3.77849,11.96591 -2.16282,12.8564 -3.422,1.81648 -2.84528,3.63169 -0.46583,5.44819 l 5.49022,0.19932 c -1.52262,50.64702 -2.81761,101.30391 -9.68276,151.95128 l -2.09626,0 0,4.61767 1.73026,0 0,4.0197 30.34595,0 0,-4.0197 2.19609,0 0,-4.61767 -2.5621,0 c -6.86516,-50.64737 -8.16013,-101.30426 -9.68276,-151.95128 l 5.45695,-0.19932 c 2.37947,-1.8165 2.98944,-3.63171 -0.43256,-5.44819 1.61568,-0.89049 8.23508,-5.68544 -2.19609,-12.8564 l 0,-3.92003 -4.3589,-0.23255 0,-5.88005 -0.66549,-0.23255 0,-31.39352 c 4.13129,-1.5985 1.14336,-3.18527 -0.86512,-4.78377 l -0.23292,-22.0253 -1.06477,-0.43187 -0.23292,-27.6728 -0.43256,0 -0.23292,0 -0.43256,0 z"
           id="path3399" />
        <text
           xml:space="preserve"
           style="font-size:14px;font-style:normal;font-variant:normal;font-weight:normal;font-stretch:normal;text-align:center;line-height:100%;text-anchor:middle;fill:#000000;fill-opacity:1;stroke:none;font-family:DejaVu Sans"
           x="365.39874"
           y="616.02191"
           id="text3570"
           sodipodi:linespacing="100%"><tspan
             sodipodi:role="line"
             id="tspan3572"
             x="365.39874"
             y="616.02191">CN Tower</tspan><tspan
             sodipodi:role="line"
             x="365.39874"
             y="630.02191"
             id="tspan3574">(Toronto)</tspan></text>
      </g>
      <g
         transform="translate(74,-144)"
         id="g3721">
        <rect
           style="fill:#000000;fill-opacity:1;fill-rule:evenodd;stroke:#000000;stroke-width:1;stroke-linecap:round;stroke-linejoin:miter;stroke-miterlimit:4;stroke-opacity:1;stroke-dasharray:none;stroke-dashoffset:0;marker:none;visibility:visible;display:inline;overflow:visible"
           id="rect3455"
           width="2.4605756"
           height="313.39999"
           x="430.14316"
           y="248.6489" />
        <text
           xml:space="preserve"
           style="font-size:14px;font-style:normal;font-variant:normal;font-weight:normal;font-stretch:normal;text-align:center;line-height:100%;text-anchor:middle;fill:#000000;fill-opacity:1;stroke:none;font-family:DejaVu Sans"
           x="430.9086"
           y="579.94214"
           id="text3580"
           sodipodi:linespacing="100%"><tspan
             sodipodi:role="line"
             id="tspan3582"
             x="430.9086"
             y="579.94214">KVLY-TV Mast</tspan><tspan
             sodipodi:role="line"
             x="430.9086"
             y="593.94214"
             id="tspan3584">(Blanchard)</tspan></text>
      </g>
      <g
         transform="translate(74,-144)"
         id="g3727">
        <rect
           y="239.85889"
           x="479.77451"
           height="322.19"
           width="2.4605756"
           id="rect2467"
           style="fill:#e6e6e6;fill-opacity:1;fill-rule:evenodd;stroke:#000000;stroke-width:1;stroke-linecap:round;stroke-linejoin:miter;stroke-miterlimit:4;stroke-opacity:1;stroke-dasharray:none;stroke-dashoffset:0;marker:none;visibility:visible;display:inline;overflow:visible" />
        <text
           sodipodi:linespacing="100%"
           id="text2469"
           y="615.85101"
           x="480.96719"
           style="font-size:14px;font-style:normal;font-variant:normal;font-weight:normal;font-stretch:normal;text-align:center;line-height:100%;text-anchor:middle;fill:#000000;fill-opacity:1;stroke:none;font-family:DejaVu Sans"
           xml:space="preserve"><tspan
             y="615.85101"
             x="480.96719"
             id="tspan2471"
             sodipodi:role="line">Warsaw Radio Mast</tspan><tspan
             id="tspan2473"
             y="629.85101"
             x="480.96719"
             sodipodi:role="line">(Gabin)</tspan></text>
      </g>
      <g
         transform="translate(74,-144)"
         id="g3733">
        <path
           style="fill:#e91616;fill-opacity:1;fill-rule:evenodd;stroke:#000000;stroke-width:1;stroke-linecap:round;stroke-linejoin:miter;stroke-miterlimit:4;stroke-opacity:1;stroke-dasharray:none;stroke-dashoffset:0;marker:none;visibility:visible;display:inline;overflow:visible"
           d="m 568.96187,149.05317 0,39.90667 -2.10787,1.49102 0,29.96069 -1.32051,1.56966 -0.3142,28.82811 -2.36069,2.66841 0,28.37338 -1.09296,2.19751 -0.3142,81.64755 -4.41666,1.08106 -0.31419,58.8154 -4.08753,1.47117 0,54.74332 -2.50559,0.50245 -0.3142,38.383 -3.44419,0.55631 0,22.599 -3.79226,0 0,5.00697 -3.14892,0 0,3.75522 -10.02238,0 0,9.43881 78.85303,0 0,-9.43881 -7.8499,0 0,-3.75522 -5.04505,0 0,-4.39801 -3.2871,-0.15696 -0.47129,-33.74155 -3.4442,-0.37241 0.47129,-45.29649 -3.62021,-0.84332 -0.31419,-55.82609 -3.17189,-0.8433 -0.62036,-63.19849 -2.5056,-3.45324 c 0,-48.6135 0,-29.61078 0,-46.14279 l -2.83473,-4.55198 -0.31419,-0.1505 0.50789,0 0,-17.7612 -1.92052,-1.72662 -0.3142,-16.91417 -0.44017,0 0,-21.31344 -1.76343,-3.13931 -0.47129,1.38011 0.47403,0 0,-28.85771 -1.79411,-1.72601 -0.0788,-9.29218 -0.0783,-41.47602 -0.41036,0 z"
           id="rect3410"
           sodipodi:nodetypes="cccccccccccccccccccccccccccccccccccccccccccccccccccccccc" />
        <text
           xml:space="preserve"
           style="font-size:14px;font-style:normal;font-variant:normal;font-weight:normal;font-stretch:normal;text-align:center;line-height:100%;text-anchor:middle;fill:#000000;fill-opacity:1;stroke:none;font-family:DejaVu Sans"
           x="568.62012"
           y="580.11304"
           id="text3586"
           sodipodi:linespacing="100%"><tspan
             sodipodi:role="line"
             id="tspan3588"
             x="568.62012"
             y="580.11304">Burj Khalifa</tspan><tspan
             sodipodi:role="line"
             x="568.62012"
             y="594.11304"
             id="tspan3590">(Dubai)</tspan></text>
      </g>
    </g>
  </g>
</svg>
